<mxfile host="65bd71144e">
    <diagram id="WUSF-0RcLxxnMN2_P921" name="Page-1">
        <mxGraphModel dx="2402" dy="2023" grid="1" gridSize="10" guides="1" tooltips="1" connect="1" arrows="1" fold="1" page="1" pageScale="1" pageWidth="827" pageHeight="1169" math="0" shadow="0">
            <root>
                <mxCell id="0"/>
                <mxCell id="1" parent="0"/>
                <mxCell id="GNSdB2UQYnpSyCBs2SAQ-117" style="edgeStyle=orthogonalEdgeStyle;rounded=0;jumpStyle=arc;orthogonalLoop=1;jettySize=auto;html=1;entryX=1;entryY=0.5;entryDx=0;entryDy=0;exitX=-0.003;exitY=0.095;exitDx=0;exitDy=0;exitPerimeter=0;" parent="1" source="4XD1L-OZV411vgD6MVe3-1" target="GNSdB2UQYnpSyCBs2SAQ-116" edge="1">
                    <mxGeometry relative="1" as="geometry"/>
                </mxCell>
                <mxCell id="GNSdB2UQYnpSyCBs2SAQ-124" style="edgeStyle=orthogonalEdgeStyle;rounded=0;jumpStyle=arc;orthogonalLoop=1;jettySize=auto;html=1;entryX=1;entryY=0.5;entryDx=0;entryDy=0;" parent="1" target="GNSdB2UQYnpSyCBs2SAQ-123" edge="1">
                    <mxGeometry relative="1" as="geometry">
                        <mxPoint x="-190" y="20" as="sourcePoint"/>
                    </mxGeometry>
                </mxCell>
                <mxCell id="4XD1L-OZV411vgD6MVe3-1" value="Cave" style="swimlane;fontStyle=0;childLayout=stackLayout;horizontal=1;startSize=30;horizontalStack=0;resizeParent=1;resizeParentMax=0;resizeLast=0;collapsible=1;marginBottom=0;whiteSpace=wrap;html=1;fillColor=#fff2cc;strokeColor=#d6b656;" parent="1" vertex="1">
                    <mxGeometry x="-190" y="5" width="275" height="150" as="geometry"/>
                </mxCell>
                <mxCell id="4XD1L-OZV411vgD6MVe3-2" value="List&amp;lt;Player&amp;gt;" style="text;strokeColor=#d6b656;fillColor=#fff2cc;align=left;verticalAlign=middle;spacingLeft=4;spacingRight=4;overflow=hidden;points=[[0,0.5],[1,0.5]];portConstraint=eastwest;rotatable=0;whiteSpace=wrap;html=1;" parent="4XD1L-OZV411vgD6MVe3-1" vertex="1">
                    <mxGeometry y="30" width="275" height="30" as="geometry"/>
                </mxCell>
                <mxCell id="4XD1L-OZV411vgD6MVe3-3" value="List&amp;lt;IRoom&amp;gt;" style="text;strokeColor=#d6b656;fillColor=#fff2cc;align=left;verticalAlign=middle;spacingLeft=4;spacingRight=4;overflow=hidden;points=[[0,0.5],[1,0.5]];portConstraint=eastwest;rotatable=0;whiteSpace=wrap;html=1;" parent="4XD1L-OZV411vgD6MVe3-1" vertex="1">
                    <mxGeometry y="60" width="275" height="30" as="geometry"/>
                </mxCell>
                <mxCell id="4XD1L-OZV411vgD6MVe3-48" value="startTheHunt()" style="text;strokeColor=#d6b656;fillColor=#fff2cc;align=left;verticalAlign=middle;spacingLeft=4;spacingRight=4;overflow=hidden;points=[[0,0.5],[1,0.5]];portConstraint=eastwest;rotatable=0;whiteSpace=wrap;html=1;" parent="4XD1L-OZV411vgD6MVe3-1" vertex="1">
                    <mxGeometry y="90" width="275" height="30" as="geometry"/>
                </mxCell>
                <mxCell id="4XD1L-OZV411vgD6MVe3-49" value="wisper(Player)" style="text;strokeColor=none;fillColor=none;align=left;verticalAlign=middle;spacingLeft=4;spacingRight=4;overflow=hidden;points=[[0,0.5],[1,0.5]];portConstraint=eastwest;rotatable=0;whiteSpace=wrap;html=1;" parent="4XD1L-OZV411vgD6MVe3-1" vertex="1">
                    <mxGeometry y="120" width="275" height="30" as="geometry"/>
                </mxCell>
                <mxCell id="4XD1L-OZV411vgD6MVe3-19" style="edgeStyle=orthogonalEdgeStyle;rounded=0;orthogonalLoop=1;jettySize=auto;html=1;entryX=0;entryY=0.25;entryDx=0;entryDy=0;exitX=0.998;exitY=0.192;exitDx=0;exitDy=0;exitPerimeter=0;" parent="1" source="4XD1L-OZV411vgD6MVe3-5" target="4XD1L-OZV411vgD6MVe3-13" edge="1">
                    <mxGeometry relative="1" as="geometry"/>
                </mxCell>
                <mxCell id="4XD1L-OZV411vgD6MVe3-47" style="edgeStyle=orthogonalEdgeStyle;rounded=0;orthogonalLoop=1;jettySize=auto;html=1;" parent="1" source="4XD1L-OZV411vgD6MVe3-5" target="4XD1L-OZV411vgD6MVe3-1" edge="1">
                    <mxGeometry relative="1" as="geometry"/>
                </mxCell>
                <mxCell id="4XD1L-OZV411vgD6MVe3-5" value="Game Server" style="swimlane;fontStyle=0;childLayout=stackLayout;horizontal=1;startSize=30;horizontalStack=0;resizeParent=1;resizeParentMax=0;resizeLast=0;collapsible=1;marginBottom=0;whiteSpace=wrap;html=1;" parent="1" vertex="1">
                    <mxGeometry x="-157.5" y="-210" width="210" height="120" as="geometry"/>
                </mxCell>
                <mxCell id="4XD1L-OZV411vgD6MVe3-6" value="List&amp;lt;IConnectionChannel&amp;gt;" style="text;strokeColor=none;fillColor=none;align=left;verticalAlign=middle;spacingLeft=4;spacingRight=4;overflow=hidden;points=[[0,0.5],[1,0.5]];portConstraint=eastwest;rotatable=0;whiteSpace=wrap;html=1;" parent="4XD1L-OZV411vgD6MVe3-5" vertex="1">
                    <mxGeometry y="30" width="210" height="30" as="geometry"/>
                </mxCell>
                <mxCell id="4XD1L-OZV411vgD6MVe3-7" value="List&amp;lt;Player&amp;gt;" style="text;strokeColor=none;fillColor=none;align=left;verticalAlign=middle;spacingLeft=4;spacingRight=4;overflow=hidden;points=[[0,0.5],[1,0.5]];portConstraint=eastwest;rotatable=0;whiteSpace=wrap;html=1;" parent="4XD1L-OZV411vgD6MVe3-5" vertex="1">
                    <mxGeometry y="60" width="210" height="30" as="geometry"/>
                </mxCell>
                <mxCell id="4XD1L-OZV411vgD6MVe3-25" value="Global chat room" style="text;strokeColor=none;fillColor=none;align=left;verticalAlign=middle;spacingLeft=4;spacingRight=4;overflow=hidden;points=[[0,0.5],[1,0.5]];portConstraint=eastwest;rotatable=0;whiteSpace=wrap;html=1;" parent="4XD1L-OZV411vgD6MVe3-5" vertex="1">
                    <mxGeometry y="90" width="210" height="30" as="geometry"/>
                </mxCell>
                <mxCell id="4XD1L-OZV411vgD6MVe3-20" style="edgeStyle=orthogonalEdgeStyle;rounded=0;orthogonalLoop=1;jettySize=auto;html=1;entryX=0.5;entryY=1;entryDx=0;entryDy=0;" parent="1" source="4XD1L-OZV411vgD6MVe3-9" target="4XD1L-OZV411vgD6MVe3-13" edge="1">
                    <mxGeometry relative="1" as="geometry"/>
                </mxCell>
                <mxCell id="4XD1L-OZV411vgD6MVe3-9" value="Connection channel" style="swimlane;fontStyle=0;childLayout=stackLayout;horizontal=1;startSize=30;horizontalStack=0;resizeParent=1;resizeParentMax=0;resizeLast=0;collapsible=1;marginBottom=0;whiteSpace=wrap;html=1;" parent="1" vertex="1">
                    <mxGeometry x="470" y="140" width="140" height="60" as="geometry"/>
                </mxCell>
                <mxCell id="GNSdB2UQYnpSyCBs2SAQ-88" style="edgeStyle=orthogonalEdgeStyle;rounded=0;jumpStyle=arc;orthogonalLoop=1;jettySize=auto;html=1;exitX=1.008;exitY=0.172;exitDx=0;exitDy=0;exitPerimeter=0;" parent="1" source="4XD1L-OZV411vgD6MVe3-13" target="GNSdB2UQYnpSyCBs2SAQ-87" edge="1">
                    <mxGeometry relative="1" as="geometry"/>
                </mxCell>
                <mxCell id="4XD1L-OZV411vgD6MVe3-13" value="IConnectionChannel" style="swimlane;fontStyle=0;childLayout=stackLayout;horizontal=1;startSize=30;horizontalStack=0;resizeParent=1;resizeParentMax=0;resizeLast=0;collapsible=1;marginBottom=0;whiteSpace=wrap;html=1;fillColor=#fff2cc;strokeColor=#d6b656;" parent="1" vertex="1">
                    <mxGeometry x="350" y="-60" width="226" height="120" as="geometry"/>
                </mxCell>
                <mxCell id="4XD1L-OZV411vgD6MVe3-75" value="ReceiveCommand(): ICommand" style="text;strokeColor=#d6b656;fillColor=#fff2cc;align=left;verticalAlign=middle;spacingLeft=4;spacingRight=4;overflow=hidden;points=[[0,0.5],[1,0.5]];portConstraint=eastwest;rotatable=0;whiteSpace=wrap;html=1;" parent="4XD1L-OZV411vgD6MVe3-13" vertex="1">
                    <mxGeometry y="30" width="226" height="30" as="geometry"/>
                </mxCell>
                <mxCell id="4XD1L-OZV411vgD6MVe3-97" value="SendCommand(ICommand): void" style="text;strokeColor=#d6b656;fillColor=#fff2cc;align=left;verticalAlign=middle;spacingLeft=4;spacingRight=4;overflow=hidden;points=[[0,0.5],[1,0.5]];portConstraint=eastwest;rotatable=0;whiteSpace=wrap;html=1;" parent="4XD1L-OZV411vgD6MVe3-13" vertex="1">
                    <mxGeometry y="60" width="226" height="30" as="geometry"/>
                </mxCell>
                <mxCell id="GNSdB2UQYnpSyCBs2SAQ-100" value="reconnect()" style="text;strokeColor=none;fillColor=none;align=left;verticalAlign=middle;spacingLeft=4;spacingRight=4;overflow=hidden;points=[[0,0.5],[1,0.5]];portConstraint=eastwest;rotatable=0;whiteSpace=wrap;html=1;" parent="4XD1L-OZV411vgD6MVe3-13" vertex="1">
                    <mxGeometry y="90" width="226" height="30" as="geometry"/>
                </mxCell>
                <mxCell id="4XD1L-OZV411vgD6MVe3-17" value="Connection channel" style="swimlane;fontStyle=0;childLayout=stackLayout;horizontal=1;startSize=30;horizontalStack=0;resizeParent=1;resizeParentMax=0;resizeLast=0;collapsible=1;marginBottom=0;whiteSpace=wrap;html=1;" parent="1" vertex="1">
                    <mxGeometry x="480" y="150" width="140" height="60" as="geometry"/>
                </mxCell>
                <mxCell id="4XD1L-OZV411vgD6MVe3-18" value="Connection channel" style="swimlane;fontStyle=0;childLayout=stackLayout;horizontal=1;startSize=30;horizontalStack=0;resizeParent=1;resizeParentMax=0;resizeLast=0;collapsible=1;marginBottom=0;whiteSpace=wrap;html=1;fillColor=#fff2cc;strokeColor=#d6b656;" parent="1" vertex="1">
                    <mxGeometry x="490" y="160" width="140" height="60" as="geometry"/>
                </mxCell>
                <mxCell id="4XD1L-OZV411vgD6MVe3-61" style="edgeStyle=orthogonalEdgeStyle;rounded=0;orthogonalLoop=1;jettySize=auto;html=1;exitX=0.5;exitY=0;exitDx=0;exitDy=0;entryX=0;entryY=0.25;entryDx=0;entryDy=0;" parent="1" source="4XD1L-OZV411vgD6MVe3-28" target="4XD1L-OZV411vgD6MVe3-13" edge="1">
                    <mxGeometry relative="1" as="geometry">
                        <Array as="points">
                            <mxPoint x="414" y="240"/>
                            <mxPoint x="320" y="240"/>
                            <mxPoint x="320" y="23"/>
                        </Array>
                    </mxGeometry>
                </mxCell>
                <mxCell id="GNSdB2UQYnpSyCBs2SAQ-5" style="edgeStyle=orthogonalEdgeStyle;rounded=0;orthogonalLoop=1;jettySize=auto;html=1;exitX=-0.017;exitY=-0.133;exitDx=0;exitDy=0;exitPerimeter=0;" parent="1" source="4XD1L-OZV411vgD6MVe3-29" target="4XD1L-OZV411vgD6MVe3-148" edge="1">
                    <mxGeometry relative="1" as="geometry"/>
                </mxCell>
                <mxCell id="GNSdB2UQYnpSyCBs2SAQ-91" style="edgeStyle=orthogonalEdgeStyle;rounded=0;jumpStyle=arc;orthogonalLoop=1;jettySize=auto;html=1;entryX=0;entryY=0.5;entryDx=0;entryDy=0;exitX=1.011;exitY=0.068;exitDx=0;exitDy=0;exitPerimeter=0;" parent="1" source="4XD1L-OZV411vgD6MVe3-28" target="GNSdB2UQYnpSyCBs2SAQ-90" edge="1">
                    <mxGeometry relative="1" as="geometry"/>
                </mxCell>
                <mxCell id="4XD1L-OZV411vgD6MVe3-28" value="Player" style="swimlane;fontStyle=0;childLayout=stackLayout;horizontal=1;startSize=30;horizontalStack=0;resizeParent=1;resizeParentMax=0;resizeLast=0;collapsible=1;marginBottom=0;whiteSpace=wrap;html=1;fillColor=#fff2cc;strokeColor=#d6b656;" parent="1" vertex="1">
                    <mxGeometry x="344" y="270" width="166" height="240" as="geometry"/>
                </mxCell>
                <mxCell id="2" value="Name" style="text;strokeColor=none;fillColor=none;align=left;verticalAlign=middle;spacingLeft=4;spacingRight=4;overflow=hidden;points=[[0,0.5],[1,0.5]];portConstraint=eastwest;rotatable=0;whiteSpace=wrap;html=1;" vertex="1" parent="4XD1L-OZV411vgD6MVe3-28">
                    <mxGeometry y="30" width="166" height="30" as="geometry"/>
                </mxCell>
                <mxCell id="4XD1L-OZV411vgD6MVe3-29" value="IConnectionChannel" style="text;strokeColor=#d6b656;fillColor=#fff2cc;align=left;verticalAlign=middle;spacingLeft=4;spacingRight=4;overflow=hidden;points=[[0,0.5],[1,0.5]];portConstraint=eastwest;rotatable=0;whiteSpace=wrap;html=1;" parent="4XD1L-OZV411vgD6MVe3-28" vertex="1">
                    <mxGeometry y="60" width="166" height="30" as="geometry"/>
                </mxCell>
                <mxCell id="4XD1L-OZV411vgD6MVe3-56" value="TurnTimer //Subject" style="text;strokeColor=none;fillColor=none;align=left;verticalAlign=middle;spacingLeft=4;spacingRight=4;overflow=hidden;points=[[0,0.5],[1,0.5]];portConstraint=eastwest;rotatable=0;whiteSpace=wrap;html=1;" parent="4XD1L-OZV411vgD6MVe3-28" vertex="1">
                    <mxGeometry y="90" width="166" height="30" as="geometry"/>
                </mxCell>
                <mxCell id="4XD1L-OZV411vgD6MVe3-30" value="List&amp;lt;Artefact&amp;gt;" style="text;strokeColor=none;fillColor=none;align=left;verticalAlign=middle;spacingLeft=4;spacingRight=4;overflow=hidden;points=[[0,0.5],[1,0.5]];portConstraint=eastwest;rotatable=0;whiteSpace=wrap;html=1;" parent="4XD1L-OZV411vgD6MVe3-28" vertex="1">
                    <mxGeometry y="120" width="166" height="30" as="geometry"/>
                </mxCell>
                <mxCell id="4XD1L-OZV411vgD6MVe3-31" value="IRoom currentRoom" style="text;strokeColor=#d6b656;fillColor=#fff2cc;align=left;verticalAlign=middle;spacingLeft=4;spacingRight=4;overflow=hidden;points=[[0,0.5],[1,0.5]];portConstraint=eastwest;rotatable=0;whiteSpace=wrap;html=1;" parent="4XD1L-OZV411vgD6MVe3-28" vertex="1">
                    <mxGeometry y="150" width="166" height="30" as="geometry"/>
                </mxCell>
                <mxCell id="4XD1L-OZV411vgD6MVe3-32" value="Player nextPlayer" style="text;strokeColor=none;fillColor=none;align=left;verticalAlign=middle;spacingLeft=4;spacingRight=4;overflow=hidden;points=[[0,0.5],[1,0.5]];portConstraint=eastwest;rotatable=0;whiteSpace=wrap;html=1;" parent="4XD1L-OZV411vgD6MVe3-28" vertex="1">
                    <mxGeometry y="180" width="166" height="30" as="geometry"/>
                </mxCell>
                <mxCell id="4XD1L-OZV411vgD6MVe3-62" value="IState" style="text;strokeColor=#d6b656;fillColor=#fff2cc;align=left;verticalAlign=middle;spacingLeft=4;spacingRight=4;overflow=hidden;points=[[0,0.5],[1,0.5]];portConstraint=eastwest;rotatable=0;whiteSpace=wrap;html=1;" parent="4XD1L-OZV411vgD6MVe3-28" vertex="1">
                    <mxGeometry y="210" width="166" height="30" as="geometry"/>
                </mxCell>
                <mxCell id="GNSdB2UQYnpSyCBs2SAQ-75" style="edgeStyle=orthogonalEdgeStyle;rounded=0;jumpStyle=arc;orthogonalLoop=1;jettySize=auto;html=1;exitX=1;exitY=0.25;exitDx=0;exitDy=0;entryX=-0.004;entryY=0.036;entryDx=0;entryDy=0;entryPerimeter=0;" parent="1" source="4XD1L-OZV411vgD6MVe3-33" target="4XD1L-OZV411vgD6MVe3-36" edge="1">
                    <mxGeometry relative="1" as="geometry">
                        <Array as="points">
                            <mxPoint x="-315" y="775"/>
                            <mxPoint x="-315" y="773"/>
                        </Array>
                    </mxGeometry>
                </mxCell>
                <mxCell id="4XD1L-OZV411vgD6MVe3-33" value="Pit" style="swimlane;fontStyle=0;childLayout=stackLayout;horizontal=1;startSize=30;horizontalStack=0;resizeParent=1;resizeParentMax=0;resizeLast=0;collapsible=1;marginBottom=0;whiteSpace=wrap;html=1;" parent="1" vertex="1">
                    <mxGeometry x="-520" y="760" width="140" height="60" as="geometry"/>
                </mxCell>
                <mxCell id="GNSdB2UQYnpSyCBs2SAQ-55" style="edgeStyle=orthogonalEdgeStyle;rounded=0;jumpStyle=arc;orthogonalLoop=1;jettySize=auto;html=1;entryX=0;entryY=0.25;entryDx=0;entryDy=0;exitX=1.004;exitY=0.036;exitDx=0;exitDy=0;exitPerimeter=0;" parent="1" source="4XD1L-OZV411vgD6MVe3-36" target="GNSdB2UQYnpSyCBs2SAQ-52" edge="1">
                    <mxGeometry relative="1" as="geometry"/>
                </mxCell>
                <mxCell id="GNSdB2UQYnpSyCBs2SAQ-63" style="edgeStyle=orthogonalEdgeStyle;rounded=0;jumpStyle=arc;orthogonalLoop=1;jettySize=auto;html=1;exitX=0.25;exitY=0;exitDx=0;exitDy=0;entryX=0.006;entryY=0.087;entryDx=0;entryDy=0;entryPerimeter=0;" parent="1" source="4XD1L-OZV411vgD6MVe3-36" target="4XD1L-OZV411vgD6MVe3-98" edge="1">
                    <mxGeometry relative="1" as="geometry">
                        <Array as="points">
                            <mxPoint x="-120" y="760"/>
                            <mxPoint x="-120" y="573"/>
                        </Array>
                    </mxGeometry>
                </mxCell>
                <mxCell id="GNSdB2UQYnpSyCBs2SAQ-65" style="edgeStyle=orthogonalEdgeStyle;rounded=0;jumpStyle=arc;orthogonalLoop=1;jettySize=auto;html=1;entryX=-0.001;entryY=0.032;entryDx=0;entryDy=0;entryPerimeter=0;" parent="1" source="4XD1L-OZV411vgD6MVe3-36" target="4XD1L-OZV411vgD6MVe3-28" edge="1">
                    <mxGeometry relative="1" as="geometry">
                        <mxPoint x="250" y="260" as="targetPoint"/>
                        <Array as="points">
                            <mxPoint x="-160" y="520"/>
                            <mxPoint y="520"/>
                            <mxPoint y="277"/>
                            <mxPoint x="344" y="277"/>
                        </Array>
                    </mxGeometry>
                </mxCell>
                <mxCell id="GNSdB2UQYnpSyCBs2SAQ-105" style="edgeStyle=orthogonalEdgeStyle;rounded=0;jumpStyle=arc;orthogonalLoop=1;jettySize=auto;html=1;entryX=0;entryY=0.5;entryDx=0;entryDy=0;exitX=1.008;exitY=0.034;exitDx=0;exitDy=0;exitPerimeter=0;" parent="1" source="4XD1L-OZV411vgD6MVe3-36" target="GNSdB2UQYnpSyCBs2SAQ-103" edge="1">
                    <mxGeometry relative="1" as="geometry"/>
                </mxCell>
                <mxCell id="GNSdB2UQYnpSyCBs2SAQ-122" style="edgeStyle=orthogonalEdgeStyle;rounded=0;jumpStyle=arc;orthogonalLoop=1;jettySize=auto;html=1;entryX=0;entryY=0.5;entryDx=0;entryDy=0;exitX=1.01;exitY=0.039;exitDx=0;exitDy=0;exitPerimeter=0;" parent="1" source="4XD1L-OZV411vgD6MVe3-36" target="GNSdB2UQYnpSyCBs2SAQ-121" edge="1">
                    <mxGeometry relative="1" as="geometry"/>
                </mxCell>
                <mxCell id="4XD1L-OZV411vgD6MVe3-36" value="IRoom" style="swimlane;fontStyle=0;childLayout=stackLayout;horizontal=1;startSize=30;horizontalStack=0;resizeParent=1;resizeParentMax=0;resizeLast=0;collapsible=1;marginBottom=0;whiteSpace=wrap;html=1;fillColor=#fff2cc;strokeColor=#d6b656;" parent="1" vertex="1">
                    <mxGeometry x="-250" y="760" width="230" height="390" as="geometry"/>
                </mxCell>
                <mxCell id="4XD1L-OZV411vgD6MVe3-37" value="List&amp;lt;Player&amp;gt;" style="text;strokeColor=#d6b656;fillColor=#fff2cc;align=left;verticalAlign=middle;spacingLeft=4;spacingRight=4;overflow=hidden;points=[[0,0.5],[1,0.5]];portConstraint=eastwest;rotatable=0;whiteSpace=wrap;html=1;" parent="4XD1L-OZV411vgD6MVe3-36" vertex="1">
                    <mxGeometry y="30" width="230" height="30" as="geometry"/>
                </mxCell>
                <mxCell id="4XD1L-OZV411vgD6MVe3-58" value="Wumpus" style="text;strokeColor=none;fillColor=none;align=left;verticalAlign=middle;spacingLeft=4;spacingRight=4;overflow=hidden;points=[[0,0.5],[1,0.5]];portConstraint=eastwest;rotatable=0;whiteSpace=wrap;html=1;" parent="4XD1L-OZV411vgD6MVe3-36" vertex="1">
                    <mxGeometry y="60" width="230" height="30" as="geometry"/>
                </mxCell>
                <mxCell id="4XD1L-OZV411vgD6MVe3-57" value="Bat" style="text;strokeColor=none;fillColor=none;align=left;verticalAlign=middle;spacingLeft=4;spacingRight=4;overflow=hidden;points=[[0,0.5],[1,0.5]];portConstraint=eastwest;rotatable=0;whiteSpace=wrap;html=1;" parent="4XD1L-OZV411vgD6MVe3-36" vertex="1">
                    <mxGeometry y="90" width="230" height="30" as="geometry"/>
                </mxCell>
                <mxCell id="4XD1L-OZV411vgD6MVe3-59" value="List&amp;lt;MagicBow&amp;gt;" style="text;strokeColor=none;fillColor=none;align=left;verticalAlign=middle;spacingLeft=4;spacingRight=4;overflow=hidden;points=[[0,0.5],[1,0.5]];portConstraint=eastwest;rotatable=0;whiteSpace=wrap;html=1;" parent="4XD1L-OZV411vgD6MVe3-36" vertex="1">
                    <mxGeometry y="120" width="230" height="30" as="geometry"/>
                </mxCell>
                <mxCell id="4XD1L-OZV411vgD6MVe3-60" value="List&amp;lt;Pebble&amp;gt;" style="text;strokeColor=none;fillColor=none;align=left;verticalAlign=middle;spacingLeft=4;spacingRight=4;overflow=hidden;points=[[0,0.5],[1,0.5]];portConstraint=eastwest;rotatable=0;whiteSpace=wrap;html=1;" parent="4XD1L-OZV411vgD6MVe3-36" vertex="1">
                    <mxGeometry y="150" width="230" height="30" as="geometry"/>
                </mxCell>
                <mxCell id="4XD1L-OZV411vgD6MVe3-38" value="List&amp;lt;IRoom&amp;gt; connectedRooms" style="text;strokeColor=#d6b656;fillColor=#fff2cc;align=left;verticalAlign=middle;spacingLeft=4;spacingRight=4;overflow=hidden;points=[[0,0.5],[1,0.5]];portConstraint=eastwest;rotatable=0;whiteSpace=wrap;html=1;" parent="4XD1L-OZV411vgD6MVe3-36" vertex="1">
                    <mxGeometry y="180" width="230" height="30" as="geometry"/>
                </mxCell>
                <mxCell id="4XD1L-OZV411vgD6MVe3-125" value="propagateSound(Sound, List&amp;lt;Room&amp;gt;)" style="text;strokeColor=none;fillColor=none;align=left;verticalAlign=middle;spacingLeft=4;spacingRight=4;overflow=hidden;points=[[0,0.5],[1,0.5]];portConstraint=eastwest;rotatable=0;whiteSpace=wrap;html=1;" parent="4XD1L-OZV411vgD6MVe3-36" vertex="1">
                    <mxGeometry y="210" width="230" height="30" as="geometry"/>
                </mxCell>
                <mxCell id="4XD1L-OZV411vgD6MVe3-128" value="makeSound(Sound)" style="text;strokeColor=#d6b656;fillColor=#fff2cc;align=left;verticalAlign=middle;spacingLeft=4;spacingRight=4;overflow=hidden;points=[[0,0.5],[1,0.5]];portConstraint=eastwest;rotatable=0;whiteSpace=wrap;html=1;" parent="4XD1L-OZV411vgD6MVe3-36" vertex="1">
                    <mxGeometry y="240" width="230" height="30" as="geometry"/>
                </mxCell>
                <mxCell id="4XD1L-OZV411vgD6MVe3-123" value="processDroppedPebble()" style="text;strokeColor=none;fillColor=none;align=left;verticalAlign=middle;spacingLeft=4;spacingRight=4;overflow=hidden;points=[[0,0.5],[1,0.5]];portConstraint=eastwest;rotatable=0;whiteSpace=wrap;html=1;" parent="4XD1L-OZV411vgD6MVe3-36" vertex="1">
                    <mxGeometry y="270" width="230" height="30" as="geometry"/>
                </mxCell>
                <mxCell id="4XD1L-OZV411vgD6MVe3-127" value="receivePlayer()" style="text;strokeColor=#d6b656;fillColor=#fff2cc;align=left;verticalAlign=middle;spacingLeft=4;spacingRight=4;overflow=hidden;points=[[0,0.5],[1,0.5]];portConstraint=eastwest;rotatable=0;whiteSpace=wrap;html=1;" parent="4XD1L-OZV411vgD6MVe3-36" vertex="1">
                    <mxGeometry y="300" width="230" height="30" as="geometry"/>
                </mxCell>
                <mxCell id="4XD1L-OZV411vgD6MVe3-126" value="receiveArrow()" style="text;strokeColor=none;fillColor=none;align=left;verticalAlign=middle;spacingLeft=4;spacingRight=4;overflow=hidden;points=[[0,0.5],[1,0.5]];portConstraint=eastwest;rotatable=0;whiteSpace=wrap;html=1;" parent="4XD1L-OZV411vgD6MVe3-36" vertex="1">
                    <mxGeometry y="330" width="230" height="30" as="geometry"/>
                </mxCell>
                <mxCell id="3" value="wisper(Player)" style="text;strokeColor=#d6b656;fillColor=#fff2cc;align=left;verticalAlign=middle;spacingLeft=4;spacingRight=4;overflow=hidden;points=[[0,0.5],[1,0.5]];portConstraint=eastwest;rotatable=0;whiteSpace=wrap;html=1;" vertex="1" parent="4XD1L-OZV411vgD6MVe3-36">
                    <mxGeometry y="360" width="230" height="30" as="geometry"/>
                </mxCell>
                <mxCell id="GNSdB2UQYnpSyCBs2SAQ-76" style="edgeStyle=orthogonalEdgeStyle;rounded=0;jumpStyle=arc;orthogonalLoop=1;jettySize=auto;html=1;exitX=1;exitY=0.25;exitDx=0;exitDy=0;entryX=-0.005;entryY=0.036;entryDx=0;entryDy=0;entryPerimeter=0;" parent="1" source="4XD1L-OZV411vgD6MVe3-39" target="4XD1L-OZV411vgD6MVe3-36" edge="1">
                    <mxGeometry relative="1" as="geometry">
                        <mxPoint x="-250" y="770" as="targetPoint"/>
                        <Array as="points">
                            <mxPoint x="-330" y="895"/>
                            <mxPoint x="-330" y="773"/>
                        </Array>
                    </mxGeometry>
                </mxCell>
                <mxCell id="4XD1L-OZV411vgD6MVe3-39" value="Regular" style="swimlane;fontStyle=0;childLayout=stackLayout;horizontal=1;startSize=30;horizontalStack=0;resizeParent=1;resizeParentMax=0;resizeLast=0;collapsible=1;marginBottom=0;whiteSpace=wrap;html=1;fillColor=#fff2cc;strokeColor=#d6b656;" parent="1" vertex="1">
                    <mxGeometry x="-520" y="880" width="140" height="60" as="geometry"/>
                </mxCell>
                <mxCell id="4XD1L-OZV411vgD6MVe3-42" value="Sound" style="swimlane;fontStyle=0;childLayout=stackLayout;horizontal=1;startSize=30;horizontalStack=0;resizeParent=1;resizeParentMax=0;resizeLast=0;collapsible=1;marginBottom=0;whiteSpace=wrap;html=1;fillColor=#fff2cc;strokeColor=#d6b656;" parent="1" vertex="1">
                    <mxGeometry x="970" y="150" width="140" height="60" as="geometry"/>
                </mxCell>
                <mxCell id="4XD1L-OZV411vgD6MVe3-43" value="PropagationDistance" style="text;strokeColor=#d6b656;fillColor=#fff2cc;align=left;verticalAlign=middle;spacingLeft=4;spacingRight=4;overflow=hidden;points=[[0,0.5],[1,0.5]];portConstraint=eastwest;rotatable=0;whiteSpace=wrap;html=1;" parent="4XD1L-OZV411vgD6MVe3-42" vertex="1">
                    <mxGeometry y="30" width="140" height="30" as="geometry"/>
                </mxCell>
                <mxCell id="4XD1L-OZV411vgD6MVe3-51" value="ICommand&amp;lt;T&amp;gt;" style="swimlane;fontStyle=0;childLayout=stackLayout;horizontal=1;startSize=30;horizontalStack=0;resizeParent=1;resizeParentMax=0;resizeLast=0;collapsible=1;marginBottom=0;whiteSpace=wrap;html=1;fillColor=#fff2cc;strokeColor=#d6b656;" parent="1" vertex="1">
                    <mxGeometry x="1208" y="-177.5" width="140" height="90" as="geometry"/>
                </mxCell>
                <mxCell id="4XD1L-OZV411vgD6MVe3-53" value="name" style="text;strokeColor=#d6b656;fillColor=#fff2cc;align=left;verticalAlign=middle;spacingLeft=4;spacingRight=4;overflow=hidden;points=[[0,0.5],[1,0.5]];portConstraint=eastwest;rotatable=0;whiteSpace=wrap;html=1;" parent="4XD1L-OZV411vgD6MVe3-51" vertex="1">
                    <mxGeometry y="30" width="140" height="30" as="geometry"/>
                </mxCell>
                <mxCell id="4XD1L-OZV411vgD6MVe3-52" value="execute&amp;lt;T&amp;gt; (T, args)" style="text;strokeColor=#d6b656;fillColor=#fff2cc;align=left;verticalAlign=middle;spacingLeft=4;spacingRight=4;overflow=hidden;points=[[0,0.5],[1,0.5]];portConstraint=eastwest;rotatable=0;whiteSpace=wrap;html=1;" parent="4XD1L-OZV411vgD6MVe3-51" vertex="1">
                    <mxGeometry y="60" width="140" height="30" as="geometry"/>
                </mxCell>
                <mxCell id="GNSdB2UQYnpSyCBs2SAQ-54" style="edgeStyle=orthogonalEdgeStyle;rounded=0;orthogonalLoop=1;jettySize=auto;html=1;entryX=1;entryY=0.25;entryDx=0;entryDy=0;exitX=-0.017;exitY=0.061;exitDx=0;exitDy=0;exitPerimeter=0;jumpStyle=arc;" parent="1" source="4XD1L-OZV411vgD6MVe3-63" target="GNSdB2UQYnpSyCBs2SAQ-52" edge="1">
                    <mxGeometry relative="1" as="geometry"/>
                </mxCell>
                <mxCell id="GNSdB2UQYnpSyCBs2SAQ-120" style="edgeStyle=orthogonalEdgeStyle;rounded=0;jumpStyle=arc;orthogonalLoop=1;jettySize=auto;html=1;entryX=0;entryY=0.5;entryDx=0;entryDy=0;" parent="1" source="4XD1L-OZV411vgD6MVe3-63" target="GNSdB2UQYnpSyCBs2SAQ-119" edge="1">
                    <mxGeometry relative="1" as="geometry"/>
                </mxCell>
                <mxCell id="4XD1L-OZV411vgD6MVe3-63" value="IState" style="swimlane;fontStyle=0;childLayout=stackLayout;horizontal=1;startSize=30;horizontalStack=0;resizeParent=1;resizeParentMax=0;resizeLast=0;collapsible=1;marginBottom=0;whiteSpace=wrap;html=1;fillColor=#fff2cc;strokeColor=#d6b656;" parent="1" vertex="1">
                    <mxGeometry x="550" y="660" width="180" height="390" as="geometry"/>
                </mxCell>
                <mxCell id="4XD1L-OZV411vgD6MVe3-54" value="startTurn(Player) &lt;br&gt;// subscribe to the TurnTimer&amp;nbsp;" style="text;strokeColor=none;fillColor=none;align=left;verticalAlign=middle;spacingLeft=4;spacingRight=4;overflow=hidden;points=[[0,0.5],[1,0.5]];portConstraint=eastwest;rotatable=0;whiteSpace=wrap;html=1;" parent="4XD1L-OZV411vgD6MVe3-63" vertex="1">
                    <mxGeometry y="30" width="180" height="30" as="geometry"/>
                </mxCell>
                <mxCell id="GNSdB2UQYnpSyCBs2SAQ-35" value="endTrun(Player next)" style="text;strokeColor=none;fillColor=none;align=left;verticalAlign=middle;spacingLeft=4;spacingRight=4;overflow=hidden;points=[[0,0.5],[1,0.5]];portConstraint=eastwest;rotatable=0;whiteSpace=wrap;html=1;" parent="4XD1L-OZV411vgD6MVe3-63" vertex="1">
                    <mxGeometry y="60" width="180" height="30" as="geometry"/>
                </mxCell>
                <mxCell id="GNSdB2UQYnpSyCBs2SAQ-33" value="scream(text)" style="text;strokeColor=none;fillColor=none;align=left;verticalAlign=middle;spacingLeft=4;spacingRight=4;overflow=hidden;points=[[0,0.5],[1,0.5]];portConstraint=eastwest;rotatable=0;whiteSpace=wrap;html=1;" parent="4XD1L-OZV411vgD6MVe3-63" vertex="1">
                    <mxGeometry y="90" width="180" height="30" as="geometry"/>
                </mxCell>
                <mxCell id="GNSdB2UQYnpSyCBs2SAQ-32" value="speak(text)" style="text;strokeColor=none;fillColor=none;align=left;verticalAlign=middle;spacingLeft=4;spacingRight=4;overflow=hidden;points=[[0,0.5],[1,0.5]];portConstraint=eastwest;rotatable=0;whiteSpace=wrap;html=1;" parent="4XD1L-OZV411vgD6MVe3-63" vertex="1">
                    <mxGeometry y="120" width="180" height="30" as="geometry"/>
                </mxCell>
                <mxCell id="GNSdB2UQYnpSyCBs2SAQ-31" value="wisper(text)" style="text;strokeColor=none;fillColor=none;align=left;verticalAlign=middle;spacingLeft=4;spacingRight=4;overflow=hidden;points=[[0,0.5],[1,0.5]];portConstraint=eastwest;rotatable=0;whiteSpace=wrap;html=1;" parent="4XD1L-OZV411vgD6MVe3-63" vertex="1">
                    <mxGeometry y="150" width="180" height="30" as="geometry"/>
                </mxCell>
                <mxCell id="GNSdB2UQYnpSyCBs2SAQ-30" value="walkTo(IRoom)" style="text;strokeColor=#d6b656;fillColor=#fff2cc;align=left;verticalAlign=middle;spacingLeft=4;spacingRight=4;overflow=hidden;points=[[0,0.5],[1,0.5]];portConstraint=eastwest;rotatable=0;whiteSpace=wrap;html=1;" parent="4XD1L-OZV411vgD6MVe3-63" vertex="1">
                    <mxGeometry y="180" width="180" height="30" as="geometry"/>
                </mxCell>
                <mxCell id="GNSdB2UQYnpSyCBs2SAQ-29" value="die()" style="text;strokeColor=none;fillColor=none;align=left;verticalAlign=middle;spacingLeft=4;spacingRight=4;overflow=hidden;points=[[0,0.5],[1,0.5]];portConstraint=eastwest;rotatable=0;whiteSpace=wrap;html=1;" parent="4XD1L-OZV411vgD6MVe3-63" vertex="1">
                    <mxGeometry y="210" width="180" height="30" as="geometry"/>
                </mxCell>
                <mxCell id="GNSdB2UQYnpSyCBs2SAQ-28" value="getHitByArrow()" style="text;strokeColor=none;fillColor=none;align=left;verticalAlign=middle;spacingLeft=4;spacingRight=4;overflow=hidden;points=[[0,0.5],[1,0.5]];portConstraint=eastwest;rotatable=0;whiteSpace=wrap;html=1;" parent="4XD1L-OZV411vgD6MVe3-63" vertex="1">
                    <mxGeometry y="240" width="180" height="30" as="geometry"/>
                </mxCell>
                <mxCell id="GNSdB2UQYnpSyCBs2SAQ-27" value="shootArrow(IRoom)" style="text;strokeColor=none;fillColor=none;align=left;verticalAlign=middle;spacingLeft=4;spacingRight=4;overflow=hidden;points=[[0,0.5],[1,0.5]];portConstraint=eastwest;rotatable=0;whiteSpace=wrap;html=1;" parent="4XD1L-OZV411vgD6MVe3-63" vertex="1">
                    <mxGeometry y="270" width="180" height="30" as="geometry"/>
                </mxCell>
                <mxCell id="GNSdB2UQYnpSyCBs2SAQ-26" value="throwPebble(IRoom)" style="text;strokeColor=none;fillColor=none;align=left;verticalAlign=middle;spacingLeft=4;spacingRight=4;overflow=hidden;points=[[0,0.5],[1,0.5]];portConstraint=eastwest;rotatable=0;whiteSpace=wrap;html=1;" parent="4XD1L-OZV411vgD6MVe3-63" vertex="1">
                    <mxGeometry y="300" width="180" height="30" as="geometry"/>
                </mxCell>
                <mxCell id="GNSdB2UQYnpSyCBs2SAQ-25" value="dropArtifact(Artifact, IRoom)" style="text;strokeColor=none;fillColor=none;align=left;verticalAlign=middle;spacingLeft=4;spacingRight=4;overflow=hidden;points=[[0,0.5],[1,0.5]];portConstraint=eastwest;rotatable=0;whiteSpace=wrap;html=1;" parent="4XD1L-OZV411vgD6MVe3-63" vertex="1">
                    <mxGeometry y="330" width="180" height="30" as="geometry"/>
                </mxCell>
                <mxCell id="GNSdB2UQYnpSyCBs2SAQ-24" value="pickUpArtifact(Artifact)" style="text;strokeColor=none;fillColor=none;align=left;verticalAlign=middle;spacingLeft=4;spacingRight=4;overflow=hidden;points=[[0,0.5],[1,0.5]];portConstraint=eastwest;rotatable=0;whiteSpace=wrap;html=1;" parent="4XD1L-OZV411vgD6MVe3-63" vertex="1">
                    <mxGeometry y="360" width="180" height="30" as="geometry"/>
                </mxCell>
                <mxCell id="4XD1L-OZV411vgD6MVe3-71" style="edgeStyle=orthogonalEdgeStyle;rounded=0;orthogonalLoop=1;jettySize=auto;html=1;exitX=0;exitY=0.25;exitDx=0;exitDy=0;" parent="1" source="4XD1L-OZV411vgD6MVe3-66" edge="1">
                    <mxGeometry relative="1" as="geometry">
                        <mxPoint x="730" y="670" as="targetPoint"/>
                        <Array as="points">
                            <mxPoint x="760" y="785"/>
                            <mxPoint x="760" y="670"/>
                        </Array>
                    </mxGeometry>
                </mxCell>
                <mxCell id="4XD1L-OZV411vgD6MVe3-66" value="Alive Active State" style="swimlane;fontStyle=0;childLayout=stackLayout;horizontal=1;startSize=30;horizontalStack=0;resizeParent=1;resizeParentMax=0;resizeLast=0;collapsible=1;marginBottom=0;whiteSpace=wrap;html=1;fillColor=#fff2cc;strokeColor=#d6b656;" parent="1" vertex="1">
                    <mxGeometry x="790" y="770" width="140" height="60" as="geometry"/>
                </mxCell>
                <mxCell id="4XD1L-OZV411vgD6MVe3-72" style="edgeStyle=orthogonalEdgeStyle;rounded=0;orthogonalLoop=1;jettySize=auto;html=1;entryX=1;entryY=0.026;entryDx=0;entryDy=0;entryPerimeter=0;exitX=0;exitY=0.167;exitDx=0;exitDy=0;exitPerimeter=0;" parent="1" source="4XD1L-OZV411vgD6MVe3-69" target="4XD1L-OZV411vgD6MVe3-63" edge="1">
                    <mxGeometry relative="1" as="geometry"/>
                </mxCell>
                <mxCell id="4XD1L-OZV411vgD6MVe3-69" value="Alive Inactive State" style="swimlane;fontStyle=0;childLayout=stackLayout;horizontal=1;startSize=30;horizontalStack=0;resizeParent=1;resizeParentMax=0;resizeLast=0;collapsible=1;marginBottom=0;whiteSpace=wrap;html=1;" parent="1" vertex="1">
                    <mxGeometry x="790" y="660" width="140" height="60" as="geometry"/>
                </mxCell>
                <mxCell id="4XD1L-OZV411vgD6MVe3-73" style="edgeStyle=orthogonalEdgeStyle;rounded=0;orthogonalLoop=1;jettySize=auto;html=1;entryX=1.01;entryY=0.026;entryDx=0;entryDy=0;entryPerimeter=0;" parent="1" source="4XD1L-OZV411vgD6MVe3-70" target="4XD1L-OZV411vgD6MVe3-63" edge="1">
                    <mxGeometry relative="1" as="geometry"/>
                </mxCell>
                <mxCell id="4XD1L-OZV411vgD6MVe3-70" value="Dead Inactive State" style="swimlane;fontStyle=0;childLayout=stackLayout;horizontal=1;startSize=30;horizontalStack=0;resizeParent=1;resizeParentMax=0;resizeLast=0;collapsible=1;marginBottom=0;whiteSpace=wrap;html=1;" parent="1" vertex="1">
                    <mxGeometry x="790" y="880" width="140" height="60" as="geometry"/>
                </mxCell>
                <mxCell id="GNSdB2UQYnpSyCBs2SAQ-42" style="edgeStyle=orthogonalEdgeStyle;rounded=0;orthogonalLoop=1;jettySize=auto;html=1;entryX=0;entryY=0.167;entryDx=0;entryDy=0;entryPerimeter=0;exitX=0.95;exitY=0.167;exitDx=0;exitDy=0;exitPerimeter=0;" parent="1" source="4XD1L-OZV411vgD6MVe3-76" target="4XD1L-OZV411vgD6MVe3-51" edge="1">
                    <mxGeometry relative="1" as="geometry"/>
                </mxCell>
                <mxCell id="4XD1L-OZV411vgD6MVe3-76" value="CommadFactory" style="swimlane;fontStyle=0;childLayout=stackLayout;horizontal=1;startSize=30;horizontalStack=0;resizeParent=1;resizeParentMax=0;resizeLast=0;collapsible=1;marginBottom=0;whiteSpace=wrap;html=1;fillColor=#fff2cc;strokeColor=#d6b656;" parent="1" vertex="1">
                    <mxGeometry x="975" y="-177.5" width="140" height="90" as="geometry"/>
                </mxCell>
                <mxCell id="4XD1L-OZV411vgD6MVe3-77" value="name" style="text;strokeColor=#d6b656;fillColor=#fff2cc;align=left;verticalAlign=middle;spacingLeft=4;spacingRight=4;overflow=hidden;points=[[0,0.5],[1,0.5]];portConstraint=eastwest;rotatable=0;whiteSpace=wrap;html=1;" parent="4XD1L-OZV411vgD6MVe3-76" vertex="1">
                    <mxGeometry y="30" width="140" height="30" as="geometry"/>
                </mxCell>
                <mxCell id="4XD1L-OZV411vgD6MVe3-78" value="execute&amp;lt;T&amp;gt; (T, args)" style="text;strokeColor=#d6b656;fillColor=#fff2cc;align=left;verticalAlign=middle;spacingLeft=4;spacingRight=4;overflow=hidden;points=[[0,0.5],[1,0.5]];portConstraint=eastwest;rotatable=0;whiteSpace=wrap;html=1;" parent="4XD1L-OZV411vgD6MVe3-76" vertex="1">
                    <mxGeometry y="60" width="140" height="30" as="geometry"/>
                </mxCell>
                <mxCell id="GNSdB2UQYnpSyCBs2SAQ-4" style="edgeStyle=orthogonalEdgeStyle;rounded=0;orthogonalLoop=1;jettySize=auto;html=1;entryX=0;entryY=0.25;entryDx=0;entryDy=0;exitX=1.013;exitY=0.111;exitDx=0;exitDy=0;exitPerimeter=0;" parent="1" source="4XD1L-OZV411vgD6MVe3-98" target="4XD1L-OZV411vgD6MVe3-148" edge="1">
                    <mxGeometry relative="1" as="geometry"/>
                </mxCell>
                <mxCell id="GNSdB2UQYnpSyCBs2SAQ-56" style="edgeStyle=orthogonalEdgeStyle;rounded=0;jumpStyle=arc;orthogonalLoop=1;jettySize=auto;html=1;entryX=0;entryY=0.25;entryDx=0;entryDy=0;exitX=1.006;exitY=0.189;exitDx=0;exitDy=0;exitPerimeter=0;" parent="1" source="4XD1L-OZV411vgD6MVe3-98" target="GNSdB2UQYnpSyCBs2SAQ-52" edge="1">
                    <mxGeometry relative="1" as="geometry">
                        <Array as="points">
                            <mxPoint x="100" y="577"/>
                            <mxPoint x="100" y="775"/>
                        </Array>
                    </mxGeometry>
                </mxCell>
                <mxCell id="4XD1L-OZV411vgD6MVe3-98" value="Wumpus" style="swimlane;fontStyle=0;childLayout=stackLayout;horizontal=1;startSize=30;horizontalStack=0;resizeParent=1;resizeParentMax=0;resizeLast=0;collapsible=1;marginBottom=0;whiteSpace=wrap;html=1;" parent="1" vertex="1">
                    <mxGeometry x="-90" y="560" width="160" height="90" as="geometry"/>
                </mxCell>
                <mxCell id="4XD1L-OZV411vgD6MVe3-136" value="getHitByArrow()" style="text;strokeColor=none;fillColor=none;align=left;verticalAlign=middle;spacingLeft=4;spacingRight=4;overflow=hidden;points=[[0,0.5],[1,0.5]];portConstraint=eastwest;rotatable=0;whiteSpace=wrap;html=1;" parent="4XD1L-OZV411vgD6MVe3-98" vertex="1">
                    <mxGeometry y="30" width="160" height="30" as="geometry"/>
                </mxCell>
                <mxCell id="4XD1L-OZV411vgD6MVe3-137" value="meetPlayer()" style="text;strokeColor=none;fillColor=none;align=left;verticalAlign=middle;spacingLeft=4;spacingRight=4;overflow=hidden;points=[[0,0.5],[1,0.5]];portConstraint=eastwest;rotatable=0;whiteSpace=wrap;html=1;" parent="4XD1L-OZV411vgD6MVe3-98" vertex="1">
                    <mxGeometry y="60" width="160" height="30" as="geometry"/>
                </mxCell>
                <mxCell id="GNSdB2UQYnpSyCBs2SAQ-126" style="edgeStyle=orthogonalEdgeStyle;rounded=0;jumpStyle=arc;orthogonalLoop=1;jettySize=auto;html=1;exitX=0.993;exitY=0.118;exitDx=0;exitDy=0;exitPerimeter=0;" parent="1" source="4XD1L-OZV411vgD6MVe3-101" target="GNSdB2UQYnpSyCBs2SAQ-125" edge="1">
                    <mxGeometry relative="1" as="geometry"/>
                </mxCell>
                <mxCell id="4XD1L-OZV411vgD6MVe3-101" value="Giant bat" style="swimlane;fontStyle=0;childLayout=stackLayout;horizontal=1;startSize=30;horizontalStack=0;resizeParent=1;resizeParentMax=0;resizeLast=0;collapsible=1;marginBottom=0;whiteSpace=wrap;html=1;" parent="1" vertex="1">
                    <mxGeometry x="40" y="1030" width="140" height="60" as="geometry"/>
                </mxCell>
                <mxCell id="GNSdB2UQYnpSyCBs2SAQ-39" value="meet(IMovable)" style="text;strokeColor=none;fillColor=none;align=left;verticalAlign=middle;spacingLeft=4;spacingRight=4;overflow=hidden;points=[[0,0.5],[1,0.5]];portConstraint=eastwest;rotatable=0;whiteSpace=wrap;html=1;" parent="4XD1L-OZV411vgD6MVe3-101" vertex="1">
                    <mxGeometry y="30" width="140" height="30" as="geometry"/>
                </mxCell>
                <mxCell id="4XD1L-OZV411vgD6MVe3-106" value="Artifact" style="swimlane;fontStyle=0;childLayout=stackLayout;horizontal=1;startSize=30;horizontalStack=0;resizeParent=1;resizeParentMax=0;resizeLast=0;collapsible=1;marginBottom=0;whiteSpace=wrap;html=1;" parent="1" vertex="1">
                    <mxGeometry x="650" y="360" width="140" height="60" as="geometry"/>
                </mxCell>
                <mxCell id="4XD1L-OZV411vgD6MVe3-107" value="name" style="text;strokeColor=none;fillColor=none;align=left;verticalAlign=middle;spacingLeft=4;spacingRight=4;overflow=hidden;points=[[0,0.5],[1,0.5]];portConstraint=eastwest;rotatable=0;whiteSpace=wrap;html=1;" parent="4XD1L-OZV411vgD6MVe3-106" vertex="1">
                    <mxGeometry y="30" width="140" height="30" as="geometry"/>
                </mxCell>
                <mxCell id="4XD1L-OZV411vgD6MVe3-120" style="edgeStyle=orthogonalEdgeStyle;rounded=0;orthogonalLoop=1;jettySize=auto;html=1;entryX=0;entryY=0.25;entryDx=0;entryDy=0;" parent="1" source="4XD1L-OZV411vgD6MVe3-30" target="4XD1L-OZV411vgD6MVe3-106" edge="1">
                    <mxGeometry relative="1" as="geometry"/>
                </mxCell>
                <mxCell id="4XD1L-OZV411vgD6MVe3-121" style="edgeStyle=orthogonalEdgeStyle;rounded=0;orthogonalLoop=1;jettySize=auto;html=1;entryX=0.004;entryY=0.036;entryDx=0;entryDy=0;entryPerimeter=0;" parent="1" source="4XD1L-OZV411vgD6MVe3-62" target="4XD1L-OZV411vgD6MVe3-63" edge="1">
                    <mxGeometry relative="1" as="geometry"/>
                </mxCell>
                <mxCell id="4XD1L-OZV411vgD6MVe3-148" value="IMovable" style="swimlane;fontStyle=0;childLayout=stackLayout;horizontal=1;startSize=30;horizontalStack=0;resizeParent=1;resizeParentMax=0;resizeLast=0;collapsible=1;marginBottom=0;whiteSpace=wrap;html=1;fillColor=#fff2cc;strokeColor=#d6b656;" parent="1" vertex="1">
                    <mxGeometry x="130" y="440" width="140" height="60" as="geometry"/>
                </mxCell>
                <mxCell id="4XD1L-OZV411vgD6MVe3-149" value="moveTo(Room)" style="text;strokeColor=#d6b656;fillColor=#fff2cc;align=left;verticalAlign=middle;spacingLeft=4;spacingRight=4;overflow=hidden;points=[[0,0.5],[1,0.5]];portConstraint=eastwest;rotatable=0;whiteSpace=wrap;html=1;" parent="4XD1L-OZV411vgD6MVe3-148" vertex="1">
                    <mxGeometry y="30" width="140" height="30" as="geometry"/>
                </mxCell>
                <mxCell id="4XD1L-OZV411vgD6MVe3-153" value="CommandRepository" style="swimlane;fontStyle=0;childLayout=stackLayout;horizontal=1;startSize=30;horizontalStack=0;resizeParent=1;resizeParentMax=0;resizeLast=0;collapsible=1;marginBottom=0;whiteSpace=wrap;html=1;" parent="1" vertex="1">
                    <mxGeometry x="921" y="-17.5" width="230" height="120" as="geometry"/>
                </mxCell>
                <mxCell id="4XD1L-OZV411vgD6MVe3-154" value="List&amp;lt;ICommand&amp;gt;" style="text;strokeColor=none;fillColor=none;align=left;verticalAlign=middle;spacingLeft=4;spacingRight=4;overflow=hidden;points=[[0,0.5],[1,0.5]];portConstraint=eastwest;rotatable=0;whiteSpace=wrap;html=1;" parent="4XD1L-OZV411vgD6MVe3-153" vertex="1">
                    <mxGeometry y="30" width="230" height="30" as="geometry"/>
                </mxCell>
                <mxCell id="GNSdB2UQYnpSyCBs2SAQ-69" value="add(ICommand)" style="text;strokeColor=none;fillColor=none;align=left;verticalAlign=middle;spacingLeft=4;spacingRight=4;overflow=hidden;points=[[0,0.5],[1,0.5]];portConstraint=eastwest;rotatable=0;whiteSpace=wrap;html=1;" parent="4XD1L-OZV411vgD6MVe3-153" vertex="1">
                    <mxGeometry y="60" width="230" height="30" as="geometry"/>
                </mxCell>
                <mxCell id="GNSdB2UQYnpSyCBs2SAQ-70" value="getAll() : List&amp;lt;ICommand&amp;gt;" style="text;strokeColor=none;fillColor=none;align=left;verticalAlign=middle;spacingLeft=4;spacingRight=4;overflow=hidden;points=[[0,0.5],[1,0.5]];portConstraint=eastwest;rotatable=0;whiteSpace=wrap;html=1;" parent="4XD1L-OZV411vgD6MVe3-153" vertex="1">
                    <mxGeometry y="90" width="230" height="30" as="geometry"/>
                </mxCell>
                <mxCell id="GNSdB2UQYnpSyCBs2SAQ-2" style="edgeStyle=orthogonalEdgeStyle;rounded=0;orthogonalLoop=1;jettySize=auto;html=1;exitX=0;exitY=0.5;exitDx=0;exitDy=0;" parent="1" source="4XD1L-OZV411vgD6MVe3-3" target="4XD1L-OZV411vgD6MVe3-36" edge="1">
                    <mxGeometry relative="1" as="geometry">
                        <mxPoint x="-230" y="450" as="targetPoint"/>
                        <Array as="points">
                            <mxPoint x="-230" y="110"/>
                        </Array>
                    </mxGeometry>
                </mxCell>
                <mxCell id="GNSdB2UQYnpSyCBs2SAQ-52" value="ISoundSensible" style="swimlane;fontStyle=0;childLayout=stackLayout;horizontal=1;startSize=30;horizontalStack=0;resizeParent=1;resizeParentMax=0;resizeLast=0;collapsible=1;marginBottom=0;whiteSpace=wrap;html=1;fillColor=#fff2cc;strokeColor=#d6b656;" parent="1" vertex="1">
                    <mxGeometry x="210" y="760" width="140" height="60" as="geometry"/>
                </mxCell>
                <mxCell id="GNSdB2UQYnpSyCBs2SAQ-34" value="receiveSound(Sound)" style="text;strokeColor=#d6b656;fillColor=#fff2cc;align=left;verticalAlign=middle;spacingLeft=4;spacingRight=4;overflow=hidden;points=[[0,0.5],[1,0.5]];portConstraint=eastwest;rotatable=0;whiteSpace=wrap;html=1;" parent="GNSdB2UQYnpSyCBs2SAQ-52" vertex="1">
                    <mxGeometry y="30" width="140" height="30" as="geometry"/>
                </mxCell>
                <mxCell id="GNSdB2UQYnpSyCBs2SAQ-66" style="edgeStyle=orthogonalEdgeStyle;rounded=0;jumpStyle=arc;orthogonalLoop=1;jettySize=auto;html=1;exitX=1;exitY=0.5;exitDx=0;exitDy=0;entryX=0.007;entryY=0.024;entryDx=0;entryDy=0;entryPerimeter=0;" parent="1" source="4XD1L-OZV411vgD6MVe3-2" target="4XD1L-OZV411vgD6MVe3-28" edge="1">
                    <mxGeometry relative="1" as="geometry">
                        <mxPoint x="300" y="270" as="targetPoint"/>
                        <Array as="points">
                            <mxPoint x="85" y="80"/>
                            <mxPoint x="160" y="80"/>
                            <mxPoint x="160" y="275"/>
                        </Array>
                    </mxGeometry>
                </mxCell>
                <mxCell id="GNSdB2UQYnpSyCBs2SAQ-67" style="edgeStyle=orthogonalEdgeStyle;rounded=0;jumpStyle=arc;orthogonalLoop=1;jettySize=auto;html=1;exitX=1;exitY=0.5;exitDx=0;exitDy=0;entryX=0;entryY=0.15;entryDx=0;entryDy=0;entryPerimeter=0;" parent="1" source="4XD1L-OZV411vgD6MVe3-57" target="4XD1L-OZV411vgD6MVe3-101" edge="1">
                    <mxGeometry relative="1" as="geometry">
                        <Array as="points">
                            <mxPoint y="865"/>
                            <mxPoint y="1040"/>
                        </Array>
                    </mxGeometry>
                </mxCell>
                <mxCell id="GNSdB2UQYnpSyCBs2SAQ-82" value="" style="endArrow=classic;html=1;rounded=0;jumpStyle=arc;entryX=-0.009;entryY=0.16;entryDx=0;entryDy=0;entryPerimeter=0;" parent="1" edge="1">
                    <mxGeometry width="50" height="50" relative="1" as="geometry">
                        <mxPoint x="892.0700000000005" y="169.37" as="sourcePoint"/>
                        <mxPoint x="970.0000000000002" y="169.56999999999982" as="targetPoint"/>
                    </mxGeometry>
                </mxCell>
                <mxCell id="GNSdB2UQYnpSyCBs2SAQ-86" value="A" style="rounded=1;html=1;align=center;verticalAlign=middle;whiteSpace=wrap;fontSize=18;fontStyle=1;arcSize=50;sketch=0;" parent="1" vertex="1">
                    <mxGeometry x="850" y="150" width="40" height="30" as="geometry"/>
                </mxCell>
                <mxCell id="GNSdB2UQYnpSyCBs2SAQ-87" value="1" style="rounded=1;html=1;align=center;verticalAlign=middle;whiteSpace=wrap;fontSize=18;fontStyle=1;arcSize=50;sketch=0;" parent="1" vertex="1">
                    <mxGeometry x="650" y="-50" width="40" height="25" as="geometry"/>
                </mxCell>
                <mxCell id="GNSdB2UQYnpSyCBs2SAQ-90" value="1" style="rounded=1;html=1;align=center;verticalAlign=middle;whiteSpace=wrap;fontSize=18;fontStyle=1;arcSize=50;sketch=0;" parent="1" vertex="1">
                    <mxGeometry x="610" y="270" width="40" height="25" as="geometry"/>
                </mxCell>
                <mxCell id="GNSdB2UQYnpSyCBs2SAQ-92" value="1" style="rounded=1;html=1;align=center;verticalAlign=middle;whiteSpace=wrap;fontSize=18;fontStyle=1;arcSize=50;sketch=0;" parent="1" vertex="1">
                    <mxGeometry x="130" y="530" width="40" height="25" as="geometry"/>
                </mxCell>
                <mxCell id="GNSdB2UQYnpSyCBs2SAQ-93" style="edgeStyle=orthogonalEdgeStyle;rounded=0;jumpStyle=arc;orthogonalLoop=1;jettySize=auto;html=1;entryX=0;entryY=0.5;entryDx=0;entryDy=0;exitX=0.995;exitY=0.117;exitDx=0;exitDy=0;exitPerimeter=0;" parent="1" source="4XD1L-OZV411vgD6MVe3-98" target="GNSdB2UQYnpSyCBs2SAQ-92" edge="1">
                    <mxGeometry relative="1" as="geometry">
                        <mxPoint x="70" y="580" as="sourcePoint"/>
                    </mxGeometry>
                </mxCell>
                <mxCell id="GNSdB2UQYnpSyCBs2SAQ-103" value="1" style="rounded=1;html=1;align=center;verticalAlign=middle;whiteSpace=wrap;fontSize=18;fontStyle=1;arcSize=50;sketch=0;" parent="1" vertex="1">
                    <mxGeometry x="85" y="800" width="40" height="25" as="geometry"/>
                </mxCell>
                <mxCell id="GNSdB2UQYnpSyCBs2SAQ-112" style="edgeStyle=orthogonalEdgeStyle;rounded=0;jumpStyle=arc;orthogonalLoop=1;jettySize=auto;html=1;exitX=0.429;exitY=1;exitDx=0;exitDy=0;exitPerimeter=0;" parent="1" source="4XD1L-OZV411vgD6MVe3-78" target="4XD1L-OZV411vgD6MVe3-153" edge="1">
                    <mxGeometry relative="1" as="geometry"/>
                </mxCell>
                <mxCell id="GNSdB2UQYnpSyCBs2SAQ-115" style="edgeStyle=orthogonalEdgeStyle;rounded=0;jumpStyle=arc;orthogonalLoop=1;jettySize=auto;html=1;entryX=0;entryY=0.25;entryDx=0;entryDy=0;" parent="1" source="GNSdB2UQYnpSyCBs2SAQ-114" target="4XD1L-OZV411vgD6MVe3-76" edge="1">
                    <mxGeometry relative="1" as="geometry">
                        <mxPoint x="647.9299999999998" y="-166.6400000000001" as="targetPoint"/>
                    </mxGeometry>
                </mxCell>
                <mxCell id="GNSdB2UQYnpSyCBs2SAQ-114" value="1" style="rounded=1;html=1;align=center;verticalAlign=middle;whiteSpace=wrap;fontSize=18;fontStyle=1;arcSize=50;sketch=0;" parent="1" vertex="1">
                    <mxGeometry x="850" y="-165" width="40" height="25" as="geometry"/>
                </mxCell>
                <mxCell id="GNSdB2UQYnpSyCBs2SAQ-116" value="1" style="rounded=1;html=1;align=center;verticalAlign=middle;whiteSpace=wrap;fontSize=18;fontStyle=1;arcSize=50;sketch=0;" parent="1" vertex="1">
                    <mxGeometry x="-320" y="5" width="40" height="25" as="geometry"/>
                </mxCell>
                <mxCell id="GNSdB2UQYnpSyCBs2SAQ-119" value="A" style="rounded=1;html=1;align=center;verticalAlign=middle;whiteSpace=wrap;fontSize=18;fontStyle=1;arcSize=50;sketch=0;" parent="1" vertex="1">
                    <mxGeometry x="690" y="570" width="40" height="30" as="geometry"/>
                </mxCell>
                <mxCell id="GNSdB2UQYnpSyCBs2SAQ-121" value="A" style="rounded=1;html=1;align=center;verticalAlign=middle;whiteSpace=wrap;fontSize=18;fontStyle=1;arcSize=50;sketch=0;" parent="1" vertex="1">
                    <mxGeometry x="85" y="860" width="40" height="30" as="geometry"/>
                </mxCell>
                <mxCell id="GNSdB2UQYnpSyCBs2SAQ-123" value="A" style="rounded=1;html=1;align=center;verticalAlign=middle;whiteSpace=wrap;fontSize=18;fontStyle=1;arcSize=50;sketch=0;" parent="1" vertex="1">
                    <mxGeometry x="-320" y="30" width="40" height="30" as="geometry"/>
                </mxCell>
                <mxCell id="GNSdB2UQYnpSyCBs2SAQ-125" value="A" style="rounded=1;html=1;align=center;verticalAlign=middle;whiteSpace=wrap;fontSize=18;fontStyle=1;arcSize=50;sketch=0;" parent="1" vertex="1">
                    <mxGeometry x="260" y="1040" width="40" height="30" as="geometry"/>
                </mxCell>
            </root>
        </mxGraphModel>
    </diagram>
</mxfile>